<svg width="13" height="13" viewBox="0 0 13 13" fill="none" xmlns="http://www.w3.org/2000/svg">
<path d="M12.0714 7.35714H7.42857V11.6429C7.42857 11.8702 7.33074 12.0882 7.1566 12.2489C6.98246 12.4097 6.74627 12.5 6.5 12.5C6.25373 12.5 6.01754 12.4097 5.8434 12.2489C5.66926 12.0882 5.57143 11.8702 5.57143 11.6429V7.35714H0.928571C0.682299 7.35714 0.446113 7.26684 0.271972 7.10609C0.0978315 6.94535 0 6.72733 0 6.5C0 6.27267 0.0978315 6.05465 0.271972 5.89391C0.446113 5.73316 0.682299 5.64286 0.928571 5.64286H5.57143V1.35714C5.57143 1.12981 5.66926 0.911797 5.8434 0.751051C6.01754 0.590306 6.25373 0.5 6.5 0.5C6.74627 0.5 6.98246 0.590306 7.1566 0.751051C7.33074 0.911797 7.42857 1.12981 7.42857 1.35714V5.64286H12.0714C12.3177 5.64286 12.5539 5.73316 12.728 5.89391C12.9022 6.05465 13 6.27267 13 6.5C13 6.72733 12.9022 6.94535 12.728 7.10609C12.5539 7.26684 12.3177 7.35714 12.0714 7.35714Z" fill="#595A5C"/>
</svg>
