<svg width="65" height="60" viewBox="0 0 65 60" fill="none" xmlns="http://www.w3.org/2000/svg">
<path d="M27 54.75C27 55.64 26.7361 56.5101 26.2416 57.2501C25.7471 57.9901 25.0443 58.5669 24.2221 58.9075C23.3998 59.2481 22.495 59.3372 21.6221 59.1635C20.7492 58.9899 19.9474 58.5613 19.318 57.932C18.6887 57.3026 18.2601 56.5008 18.0865 55.6279C17.9128 54.755 18.0019 53.8502 18.3425 53.0279C18.6831 52.2057 19.2599 51.5029 19.9999 51.0084C20.74 50.5139 21.61 50.25 22.5 50.25C23.6935 50.25 24.8381 50.7241 25.682 51.568C26.5259 52.4119 27 53.5565 27 54.75ZM51.75 50.25C50.86 50.25 49.99 50.5139 49.2499 51.0084C48.5099 51.5029 47.9331 52.2057 47.5925 53.0279C47.2519 53.8502 47.1628 54.755 47.3365 55.6279C47.5101 56.5008 47.9387 57.3026 48.568 57.932C49.1974 58.5613 49.9992 58.9899 50.8721 59.1635C51.745 59.3372 52.6498 59.2481 53.4721 58.9075C54.2943 58.5669 54.9971 57.9901 55.4916 57.2501C55.9861 56.5101 56.25 55.64 56.25 54.75C56.25 53.5565 55.7759 52.4119 54.932 51.568C54.0881 50.7241 52.9435 50.25 51.75 50.25ZM64.1531 12.9C63.9421 12.6222 63.67 12.3965 63.3579 12.2405C63.0458 12.0844 62.702 12.0022 62.3531 12H13.5844L11.3063 4.0125C11.0331 3.0741 10.4636 2.24927 9.68297 1.66124C8.90231 1.07321 7.95234 0.753543 6.975 0.75H2.25C1.65326 0.75 1.08097 0.987053 0.65901 1.40901C0.237053 1.83097 0 2.40326 0 3C0 3.59674 0.237053 4.16903 0.65901 4.59099C1.08097 5.01295 1.65326 5.25 2.25 5.25H6.975L9.73125 14.8406V14.8969L17.1562 40.8563C17.564 42.265 18.4176 43.5036 19.5891 44.3859C20.7605 45.2683 22.1865 45.747 23.6531 45.75H50.5969C52.0635 45.747 53.4895 45.2683 54.6609 44.3859C55.8324 43.5036 56.686 42.265 57.0938 40.8563L64.5187 14.8688C64.6139 14.5346 64.6305 14.183 64.567 13.8415C64.5036 13.4999 64.3619 13.1777 64.1531 12.9Z" fill="#CDD2DE"/>
</svg>
