<svg width="61" height="54" viewBox="0 0 61 54" fill="none" xmlns="http://www.w3.org/2000/svg">
<path d="M43.875 1.85376e-07C41.2552 1.85376e-07 38.6715 0.609949 36.3283 1.78154C33.9851 2.95313 31.9469 4.65419 30.375 6.75C28.2499 3.91659 25.2872 1.82362 21.9066 0.767584C18.5259 -0.288456 14.8987 -0.254036 11.5387 0.86597C8.17864 1.98597 5.2562 4.13478 3.18529 7.00801C1.11438 9.88124 0 13.3332 0 16.875C0 37.0969 28.0969 53.0437 29.2781 53.7188C29.6128 53.9069 29.9911 54.0039 30.375 54C30.7593 54.0066 31.1382 53.9094 31.4719 53.7188C36.646 50.6939 41.4991 47.1507 45.9562 43.1437C55.7719 34.3125 60.75 25.4813 60.75 16.875C60.75 12.3995 58.9721 8.10725 55.8074 4.94257C52.6428 1.7779 48.3505 1.85376e-07 43.875 1.85376e-07V1.85376e-07Z" fill="#CDD2DE"/>
</svg>
