<svg width="54" height="56" viewBox="0 0 54 56" fill="none" xmlns="http://www.w3.org/2000/svg">
<path d="M52.5375 22.1656L30.0375 1.71876C29.2079 0.959833 28.1243 0.53894 27 0.53894C25.8757 0.53894 24.792 0.959833 23.9625 1.71876L1.46249 22.1656C1.00182 22.5871 0.633886 23.0998 0.382102 23.6712C0.130317 24.2425 0.000188154 24.86 -1.02564e-05 25.4844V51.3875C-0.0183041 52.522 0.382226 53.6235 1.12499 54.4813C1.54655 54.9606 2.06586 55.3442 2.648 55.6062C3.23014 55.8681 3.86163 56.0024 4.49999 56H18C18.5967 56 19.169 55.763 19.591 55.341C20.0129 54.919 20.25 54.3467 20.25 53.75V40.25C20.25 39.6533 20.487 39.081 20.909 38.659C21.331 38.2371 21.9033 38 22.5 38H31.5C32.0967 38 32.669 38.2371 33.091 38.659C33.5129 39.081 33.75 39.6533 33.75 40.25V53.75C33.75 54.3467 33.987 54.919 34.409 55.341C34.831 55.763 35.4033 56 36 56H49.5C50.2463 56.0066 50.982 55.8227 51.6375 55.4656C52.3507 55.0772 52.9464 54.5042 53.362 53.8065C53.7776 53.1088 53.998 52.3121 54 51.5V25.4844C53.9998 24.86 53.8697 24.2425 53.6179 23.6712C53.3661 23.0998 52.9982 22.5871 52.5375 22.1656V22.1656Z" fill="url(#paint0_linear_40_19)"/>
<defs>
<linearGradient id="paint0_linear_40_19" x1="26.9997" y1="0.53894" x2="26.9997" y2="56.0002" gradientUnits="userSpaceOnUse">
<stop offset="1" stop-color="#CDD2DE"/>
</linearGradient>
</defs>
</svg>
