<svg width="24" height="27" viewBox="0 0 24 27" fill="none" xmlns="http://www.w3.org/2000/svg">
<path d="M18.3214 27C20.98 27 23.1429 24.8371 23.1429 22.1786V4.82143C23.1429 2.16289 20.98 0 18.3214 0H4.82143C2.16289 0 0 2.16289 0 4.82143V22.1786C0 24.8371 2.16289 27 4.82143 27H18.3214ZM1.92857 4.82143C1.92857 3.2265 3.2265 1.92857 4.82143 1.92857H18.3214C19.9164 1.92857 21.2143 3.2265 21.2143 4.82143V22.1786C21.2143 23.7735 19.9164 25.0714 18.3214 25.0714H4.82143C3.2265 25.0714 1.92857 23.7735 1.92857 22.1786V4.82143Z" fill="#595A5C"/>
<path d="M9.6429 14.4644H17.3572C17.6129 14.4644 17.8582 14.3628 18.039 14.1819C18.2199 14.0011 18.3215 13.7558 18.3215 13.5001C18.3215 13.2443 18.2199 12.9991 18.039 12.8182C17.8582 12.6374 17.6129 12.5358 17.3572 12.5358H9.6429C9.38716 12.5358 9.14189 12.6374 8.96105 12.8182C8.78021 12.9991 8.67862 13.2443 8.67862 13.5001C8.67862 13.7558 8.78021 14.0011 8.96105 14.1819C9.14189 14.3628 9.38716 14.4644 9.6429 14.4644ZM9.6429 9.64293H17.3572C17.6129 9.64293 17.8582 9.54133 18.039 9.36049C18.2199 9.17966 18.3215 8.93439 18.3215 8.67864C18.3215 8.4229 18.2199 8.17763 18.039 7.99679C17.8582 7.81595 17.6129 7.71436 17.3572 7.71436H9.6429C9.38716 7.71436 9.14189 7.81595 8.96105 7.99679C8.78021 8.17763 8.67862 8.4229 8.67862 8.67864C8.67862 8.93439 8.78021 9.17966 8.96105 9.36049C9.14189 9.54133 9.38716 9.64293 9.6429 9.64293ZM9.6429 19.2858H17.3572C17.6129 19.2858 17.8582 19.1842 18.039 19.0034C18.2199 18.8225 18.3215 18.5772 18.3215 18.3215C18.3215 18.0658 18.2199 17.8205 18.039 17.6396C17.8582 17.4588 17.6129 17.3572 17.3572 17.3572H9.6429C9.38716 17.3572 9.14189 17.4588 8.96105 17.6396C8.78021 17.8205 8.67862 18.0658 8.67862 18.3215C8.67862 18.5772 8.78021 18.8225 8.96105 19.0034C9.14189 19.1842 9.38716 19.2858 9.6429 19.2858ZM5.80504 9.64293C6.06079 9.64293 6.30606 9.54133 6.4869 9.36049C6.66774 9.17966 6.76933 8.93439 6.76933 8.67864C6.76933 8.4229 6.66774 8.17763 6.4869 7.99679C6.30606 7.81595 6.06079 7.71436 5.80504 7.71436H5.7954C5.26312 7.71436 4.83594 8.14636 4.83594 8.67864C4.83594 9.21093 5.27276 9.64293 5.80504 9.64293ZM5.80504 14.4644C6.06079 14.4644 6.30606 14.3628 6.4869 14.1819C6.66774 14.0011 6.76933 13.7558 6.76933 13.5001C6.76933 13.2443 6.66774 12.9991 6.4869 12.8182C6.30606 12.6374 6.06079 12.5358 5.80504 12.5358H5.7954C5.26312 12.5358 4.83594 12.9678 4.83594 13.5001C4.83594 14.0324 5.27276 14.4644 5.80504 14.4644ZM5.80504 19.2858C6.06079 19.2858 6.30606 19.1842 6.4869 19.0034C6.66774 18.8225 6.76933 18.5772 6.76933 18.3215C6.76933 18.0658 6.66774 17.8205 6.4869 17.6396C6.30606 17.4588 6.06079 17.3572 5.80504 17.3572H5.7954C5.26312 17.3572 4.83594 17.7892 4.83594 18.3215C4.83594 18.8538 5.27276 19.2858 5.80504 19.2858Z" fill="#595A5C"/>
</svg>
