<svg width="59" height="50" viewBox="0 0 59 50" fill="none" xmlns="http://www.w3.org/2000/svg">
<path d="M54 0H4.5C3.30653 0 2.16193 0.474106 1.31802 1.31802C0.474106 2.16193 0 3.30653 0 4.5V45C0 46.1935 0.474106 47.3381 1.31802 48.182C2.16193 49.0259 3.30653 49.5 4.5 49.5H54C55.1935 49.5 56.3381 49.0259 57.182 48.182C58.0259 47.3381 58.5 46.1935 58.5 45V4.5C58.5 3.30653 58.0259 2.16193 57.182 1.31802C56.3381 0.474106 55.1935 0 54 0V0ZM29.25 27C25.6696 27 22.2358 25.5777 19.7041 23.0459C17.1723 20.5142 15.75 17.0804 15.75 13.5C15.75 12.9033 15.9871 12.331 16.409 11.909C16.831 11.4871 17.4033 11.25 18 11.25C18.5967 11.25 19.169 11.4871 19.591 11.909C20.0129 12.331 20.25 12.9033 20.25 13.5C20.25 15.8869 21.1982 18.1761 22.886 19.864C24.5739 21.5518 26.8631 22.5 29.25 22.5C31.6369 22.5 33.9261 21.5518 35.614 19.864C37.3018 18.1761 38.25 15.8869 38.25 13.5C38.25 12.9033 38.4871 12.331 38.909 11.909C39.331 11.4871 39.9033 11.25 40.5 11.25C41.0967 11.25 41.669 11.4871 42.091 11.909C42.5129 12.331 42.75 12.9033 42.75 13.5C42.75 17.0804 41.3277 20.5142 38.7959 23.0459C36.2642 25.5777 32.8304 27 29.25 27V27Z" fill="#CDD2DE"/>
</svg>
