<svg width="16" height="22" viewBox="0 0 16 22" fill="none" xmlns="http://www.w3.org/2000/svg">
<path d="M3.05605 1.41805L4.22305 1.06705C4.86234 0.874278 5.54993 0.920685 6.15752 1.19761C6.76511 1.47454 7.25119 1.96308 7.52505 2.57205L8.42705 4.57805C8.66251 5.10186 8.72808 5.68623 8.61456 6.24919C8.50104 6.81215 8.21411 7.32544 7.79405 7.71705L6.30005 9.11005C6.25638 9.15075 6.22871 9.20573 6.22205 9.26505C6.17805 9.66205 6.44705 10.4351 7.06705 11.5101C7.51805 12.2911 7.92705 12.8401 8.27405 13.1471C8.51605 13.3621 8.64905 13.4081 8.70605 13.3921L10.716 12.7771C11.265 12.6092 11.8527 12.6172 12.3967 12.8001C12.9408 12.9831 13.414 13.3317 13.75 13.7971L15.031 15.5731C15.4206 16.1131 15.6009 16.7762 15.5386 17.4392C15.4763 18.1022 15.1755 18.7201 14.692 19.1781L13.806 20.0181C13.3358 20.4634 12.7583 20.7793 12.1297 20.9351C11.5011 21.0909 10.8428 21.0812 10.219 20.9071C7.46505 20.1381 4.99605 17.8141 2.78405 13.9831C0.569049 10.1471 -0.207951 6.84305 0.508049 4.07005C0.669225 3.44639 0.988335 2.87476 1.43462 2.41025C1.88091 1.94575 2.43933 1.60404 3.05605 1.41805V1.41805ZM3.48905 2.85505C3.11912 2.96651 2.78413 3.17134 2.51633 3.44982C2.24853 3.7283 2.05695 4.07105 1.96005 4.44505C1.35805 6.77705 2.04705 9.70605 4.08305 13.2331C6.11605 16.7551 8.30505 18.8151 10.623 19.4631C10.9972 19.5673 11.3919 19.5728 11.7689 19.4793C12.1458 19.3857 12.4921 19.1961 12.774 18.9291L13.661 18.0891C13.8809 17.8808 14.0176 17.5999 14.046 17.2985C14.0743 16.997 13.9922 16.6956 13.8151 16.4501L12.535 14.6751C12.3823 14.4633 12.1671 14.3046 11.9196 14.2214C11.6721 14.1382 11.4047 14.1346 11.155 14.2111L9.14005 14.8281C7.97005 15.1761 6.90805 14.2351 5.76805 12.2601C5.00005 10.9301 4.64205 9.90005 4.73105 9.09905C4.77805 8.68305 4.97105 8.29905 5.27705 8.01305L6.77105 6.62005C6.96207 6.44207 7.09257 6.20874 7.14422 5.95281C7.19587 5.69688 7.16609 5.43119 7.05905 5.19305L6.15705 3.18705C6.03257 2.91046 5.81177 2.68857 5.53579 2.56272C5.25982 2.43688 4.9475 2.41567 4.65705 2.50305L3.48905 2.85505V2.85505Z" fill="#807A7A"/>
</svg>
