<svg width="28" height="28" viewBox="0 0 28 28" fill="none" xmlns="http://www.w3.org/2000/svg">
<path fill-rule="evenodd" clip-rule="evenodd" d="M13.6252 1.80255C7.09573 1.80255 1.80255 7.09573 1.80255 13.6252C1.80255 16.4596 2.79916 19.0602 4.46255 21.0972C5.45115 19.1488 7.473 17.8135 9.80802 17.8135H17.4424C19.7774 17.8135 21.7992 19.1488 22.7878 21.0972C24.4512 19.0602 25.4478 16.4596 25.4478 13.6252C25.4478 7.09573 20.1547 1.80255 13.6252 1.80255ZM21.4267 22.5086C20.8812 20.8296 19.3027 19.616 17.4424 19.616H9.80802C7.94772 19.616 6.3692 20.8296 5.82373 22.5086C7.90613 24.339 10.6353 25.4478 13.6252 25.4478C16.615 25.4478 19.3443 24.339 21.4267 22.5086ZM0 13.6252C0 6.10021 6.10021 0 13.6252 0C21.1502 0 27.2504 6.10021 27.2504 13.6252C27.2504 17.489 25.6409 20.9784 23.0582 23.457C20.611 25.8056 17.2859 27.2504 13.6252 27.2504C9.96452 27.2504 6.63942 25.8056 4.19213 23.457C1.60948 20.9784 0 17.489 0 13.6252ZM13.6252 5.61973C11.3121 5.61973 9.4369 7.49489 9.4369 9.80802C9.4369 12.1211 11.3121 13.9963 13.6252 13.9963C15.9383 13.9963 17.8135 12.1211 17.8135 9.80802C17.8135 7.49489 15.9383 5.61973 13.6252 5.61973ZM7.63435 9.80802C7.63435 6.49937 10.3165 3.81717 13.6252 3.81717C16.9338 3.81717 19.616 6.49937 19.616 9.80802C19.616 13.1167 16.9338 15.7989 13.6252 15.7989C10.3165 15.7989 7.63435 13.1167 7.63435 9.80802Z" fill="#595A5C"/>
</svg>
