<svg width="59" height="59" viewBox="0 0 59 59" fill="none" xmlns="http://www.w3.org/2000/svg">
<path d="M29.25 0C23.4649 0 17.8097 1.71548 12.9996 4.92951C8.18945 8.14355 4.4404 12.7118 2.22654 18.0565C0.0126736 23.4012 -0.566574 29.2824 0.562044 34.9564C1.69066 40.6303 4.47645 45.8422 8.56714 49.9329C12.6578 54.0236 17.8697 56.8094 23.5436 57.938C29.2176 59.0666 35.0988 58.4873 40.4435 56.2735C45.7882 54.0596 50.3565 50.3106 53.5705 45.5004C56.7845 40.6903 58.5 35.0351 58.5 29.25C58.4851 21.497 55.3987 14.0658 49.9165 8.58355C44.4342 3.10133 37.003 0.0148668 29.25 0V0ZM39.375 20.25C40.0425 20.25 40.695 20.4479 41.2501 20.8188C41.8051 21.1896 42.2377 21.7167 42.4931 22.3334C42.7486 22.9501 42.8154 23.6287 42.6852 24.2834C42.5549 24.9381 42.2335 25.5395 41.7615 26.0115C41.2895 26.4835 40.6881 26.8049 40.0334 26.9352C39.3788 27.0654 38.7002 26.9985 38.0835 26.7431C37.4668 26.4876 36.9397 26.0551 36.5688 25.5C36.198 24.945 36 24.2925 36 23.625C36 22.7299 36.3556 21.8714 36.9885 21.2385C37.6215 20.6056 38.4799 20.25 39.375 20.25ZM19.125 20.25C19.7925 20.25 20.445 20.4479 21.0001 20.8188C21.5551 21.1896 21.9877 21.7167 22.2431 22.3334C22.4986 22.9501 22.5654 23.6287 22.4352 24.2834C22.3049 24.9381 21.9835 25.5395 21.5115 26.0115C21.0395 26.4835 20.4381 26.8049 19.7834 26.9352C19.1288 27.0654 18.4502 26.9985 17.8335 26.7431C17.2168 26.4876 16.6897 26.0551 16.3188 25.5C15.948 24.945 15.75 24.2925 15.75 23.625C15.75 22.7299 16.1056 21.8714 16.7385 21.2385C17.3715 20.6056 18.2299 20.25 19.125 20.25ZM42.8906 37.125C41.5084 39.5196 39.5201 41.5082 37.1256 42.8908C34.7312 44.2734 32.015 45.0013 29.25 45.0013C26.4851 45.0013 23.7688 44.2734 21.3744 42.8908C18.9799 41.5082 16.9916 39.5196 15.6094 37.125C15.4333 36.8695 15.3119 36.5804 15.253 36.2758C15.194 35.9712 15.1986 35.6577 15.2666 35.3549C15.3346 35.0522 15.4645 34.7668 15.6481 34.5167C15.8317 34.2665 16.065 34.0571 16.3335 33.9015C16.6019 33.7459 16.8996 33.6475 17.2079 33.6124C17.5162 33.5774 17.8284 33.6065 18.1249 33.6979C18.4214 33.7894 18.6958 33.9411 18.9308 34.1437C19.1659 34.3463 19.3565 34.5952 19.4906 34.875C20.4815 36.5859 21.9048 38.0062 23.6177 38.9935C25.3306 39.9809 27.2729 40.5006 29.25 40.5006C31.2271 40.5006 33.1695 39.9809 34.8824 38.9935C36.5952 38.0062 38.0185 36.5859 39.0094 34.875C39.3308 34.4087 39.8162 34.0808 40.3688 33.9567C40.9214 33.8325 41.5004 33.9214 41.9904 34.2054C42.4803 34.4894 42.8452 34.9478 43.012 35.489C43.1789 36.0302 43.1356 36.6144 42.8906 37.125Z" fill="#CDD2DE"/>
</svg>
