<svg width="25" height="27" viewBox="0 0 25 27" fill="none" xmlns="http://www.w3.org/2000/svg">
<path d="M12.8538 9C13.7438 9 14.6138 9.26392 15.3538 9.75839C16.0938 10.2529 16.6706 10.9557 17.0112 11.7779C17.3518 12.6002 17.4409 13.505 17.2673 14.3779C17.0937 15.2508 16.6651 16.0526 16.0357 16.682C15.4064 17.3113 14.6046 17.7399 13.7317 17.9135C12.8587 18.0872 11.9539 17.9981 11.1317 17.6575C10.3094 17.3169 9.60661 16.7401 9.11214 16.0001C8.61768 15.26 8.35376 14.39 8.35376 13.5C8.35376 12.3065 8.82786 11.1619 9.67178 10.318C10.5157 9.47411 11.6603 9 12.8538 9ZM12.8538 15.75C13.2988 15.75 13.7338 15.618 14.1038 15.3708C14.4738 15.1236 14.7622 14.7722 14.9325 14.361C15.1028 13.9499 15.1473 13.4975 15.0605 13.061C14.9737 12.6246 14.7594 12.2237 14.4447 11.909C14.1301 11.5943 13.7292 11.38 13.2927 11.2932C12.8563 11.2064 12.4039 11.251 11.9927 11.4213C11.5816 11.5916 11.2302 11.88 10.9829 12.25C10.7357 12.62 10.6038 13.055 10.6038 13.5C10.6038 14.0967 10.8408 14.669 11.2628 15.091C11.6847 15.5129 12.257 15.75 12.8538 15.75Z" fill="#595A5C"/>
<path d="M2.39799 15.6375L2.89749 15.3495C2.67262 14.126 2.67262 12.8718 2.89749 11.6483L2.39799 11.3602C2.01387 11.1386 1.67717 10.8436 1.40709 10.4918C1.13702 10.1401 0.938873 9.73861 0.823961 9.3103C0.709047 8.88198 0.679625 8.43524 0.737366 7.99555C0.795109 7.55587 0.938885 7.13187 1.16049 6.74775C1.3821 6.36363 1.67719 6.02693 2.02892 5.75685C2.38066 5.48678 2.78214 5.28863 3.21045 5.17372C3.63876 5.05881 4.08551 5.02938 4.52519 5.08712C4.96487 5.14487 5.38887 5.28864 5.77299 5.51025L6.27361 5.79938C7.21914 4.99153 8.30574 4.36528 9.47874 3.95213V3.375C9.47874 2.47989 9.83432 1.62145 10.4673 0.988515C11.1002 0.355579 11.9586 0 12.8537 0C13.7488 0 14.6073 0.355579 15.2402 0.988515C15.8732 1.62145 16.2287 2.47989 16.2287 3.375V3.95213C17.4017 4.36676 18.4879 4.99455 19.4327 5.80387L19.9356 5.5125C20.7114 5.06495 21.6332 4.94389 22.4982 5.17597C23.3632 5.40805 24.1006 5.97424 24.5481 6.75C24.9957 7.52576 25.1167 8.44753 24.8846 9.31254C24.6526 10.1776 24.0864 10.9149 23.3106 11.3625L22.8111 11.6505C23.036 12.874 23.036 14.1282 22.8111 15.3517L23.3106 15.6398C24.0864 16.0873 24.6526 16.8247 24.8846 17.6897C25.1167 18.5547 24.9957 19.4765 24.5481 20.2523C24.1006 21.028 23.3632 21.5942 22.4982 21.8263C21.6332 22.0584 20.7114 21.9373 19.9356 21.4897L19.435 21.2006C18.4891 22.0086 17.4021 22.6348 16.2287 23.0479V23.625C16.2287 24.5201 15.8732 25.3786 15.2402 26.0115C14.6073 26.6444 13.7488 27 12.8537 27C11.9586 27 11.1002 26.6444 10.4673 26.0115C9.83432 25.3786 9.47874 24.5201 9.47874 23.625V23.0479C8.3058 22.6332 7.21957 22.0054 6.27474 21.1961L5.77187 21.4864C4.99611 21.9339 4.07433 22.055 3.20932 21.8229C2.34431 21.5908 1.60692 21.0246 1.15936 20.2489C0.711813 19.4731 0.590759 18.5513 0.822836 17.6863C1.05491 16.8213 1.62111 16.0839 2.39687 15.6364L2.39799 15.6375ZM5.26449 11.3895C4.88352 12.7699 4.88352 14.2278 5.26449 15.6082C5.33101 15.8485 5.31584 16.1041 5.22136 16.3348C5.12687 16.5655 4.95844 16.7583 4.74249 16.8829L3.52299 17.5871C3.26445 17.7363 3.07577 17.9821 2.99845 18.2704C2.92112 18.5587 2.96149 18.8659 3.11068 19.1244C3.25986 19.383 3.50564 19.5717 3.79394 19.649C4.08224 19.7263 4.38945 19.6859 4.64799 19.5367L5.86974 18.8303C6.08586 18.7051 6.33749 18.6554 6.58496 18.689C6.83245 18.7226 7.06171 18.8376 7.23662 19.0159C8.23796 20.0381 9.49947 20.7675 10.885 21.1252C11.1268 21.1874 11.3411 21.3283 11.4941 21.5257C11.647 21.723 11.73 21.9657 11.7299 22.2154V23.625C11.7299 23.9234 11.8484 24.2095 12.0594 24.4205C12.2703 24.6315 12.5565 24.75 12.8549 24.75C13.1532 24.75 13.4394 24.6315 13.6504 24.4205C13.8613 24.2095 13.9799 23.9234 13.9799 23.625V22.2165C13.9797 21.9668 14.0627 21.7241 14.2157 21.5268C14.3686 21.3294 14.5829 21.1886 14.8247 21.1264C16.2104 20.7671 17.4715 20.0362 18.472 19.0125C18.6469 18.8342 18.8762 18.7192 19.1236 18.6856C19.3711 18.652 19.6227 18.7017 19.8389 18.8269L21.0584 19.5322C21.1864 19.6073 21.3279 19.6563 21.4749 19.6764C21.6219 19.6965 21.7714 19.6873 21.9149 19.6494C22.0583 19.6114 22.1928 19.5455 22.3107 19.4554C22.4286 19.3653 22.5274 19.2527 22.6016 19.1242C22.6758 18.9958 22.7238 18.8539 22.7429 18.7067C22.7621 18.5596 22.7519 18.4102 22.713 18.267C22.6742 18.1238 22.6073 17.9897 22.5164 17.8725C22.4255 17.7552 22.3123 17.6571 22.1834 17.5837L20.9639 16.8795C20.7479 16.7549 20.5795 16.5621 20.485 16.3314C20.3905 16.1007 20.3753 15.8451 20.4419 15.6049C20.8228 14.2244 20.8228 12.7666 20.4419 11.3861C20.3765 11.1464 20.3924 10.8917 20.4871 10.662C20.5817 10.4322 20.7498 10.2402 20.965 10.116L22.1845 9.41175C22.443 9.26257 22.6317 9.01679 22.709 8.72849C22.7864 8.44018 22.746 8.13297 22.5968 7.87444C22.4476 7.6159 22.2018 7.42722 21.9135 7.34989C21.6252 7.27257 21.318 7.31294 21.0595 7.46212L19.8377 8.16862C19.6222 8.29408 19.3711 8.34436 19.1239 8.31158C18.8767 8.27879 18.6474 8.16479 18.472 7.9875C17.4706 6.96526 16.2091 6.2359 14.8236 5.87812C14.581 5.81576 14.3662 5.67422 14.2132 5.47594C14.0601 5.27766 13.9776 5.03397 13.9787 4.7835V3.375C13.9787 3.07663 13.8602 2.79048 13.6492 2.5795C13.4383 2.36853 13.1521 2.25 12.8537 2.25C12.5554 2.25 12.2692 2.36853 12.0582 2.5795C11.8473 2.79048 11.7287 3.07663 11.7287 3.375V4.7835C11.7289 5.0332 11.6459 5.27585 11.4929 5.47322C11.34 5.67058 11.1257 5.81145 10.8839 5.87363C9.49785 6.23267 8.2363 6.96362 7.23549 7.9875C7.06058 8.16578 6.83132 8.28078 6.58384 8.31439C6.33636 8.348 6.08474 8.2983 5.86862 8.17313L4.64912 7.46775C4.52112 7.39271 4.37955 7.34374 4.23256 7.32364C4.08556 7.30354 3.93604 7.31272 3.7926 7.35064C3.64916 7.38856 3.51465 7.45448 3.39679 7.5446C3.27893 7.63473 3.18007 7.74727 3.10588 7.87576C3.0317 8.00424 2.98366 8.14614 2.96454 8.29326C2.94541 8.44039 2.95558 8.58985 2.99446 8.73303C3.03333 8.87621 3.10014 9.01029 3.19104 9.12755C3.28194 9.2448 3.39514 9.34292 3.52412 9.41625L4.74362 10.1205C4.95844 10.245 5.12602 10.4372 5.22024 10.6669C5.31445 10.8967 5.33002 11.1511 5.26449 11.3906V11.3895Z" fill="#595A5C"/>
</svg>
